<svg width="68" height="87" viewBox="0 0 68 87" fill="none" xmlns="http://www.w3.org/2000/svg">
<path fill-rule="evenodd" clip-rule="evenodd" d="M45.444 66.9194C58.5919 62.221 68.0005 49.6558 68.0005 34.8932C68.0005 16.1156 52.7782 0.893234 34.0005 0.893234C15.2228 0.893234 0.000488281 16.1156 0.000488281 34.8932C0.000488281 50.7473 10.8517 64.0669 25.5322 67.8302L33.0528 75.3508C34.1463 76.4443 35.9191 76.4443 37.0126 75.3508L45.444 66.9194Z" fill="white"/>
<mask id="path-3-inside-1_6133_21315" fill="white">
<path fill-rule="evenodd" clip-rule="evenodd" d="M44.428 64.5706C56.6563 60.2007 65.4068 48.5144 65.4068 34.7843C65.4068 17.3199 51.2491 3.16222 33.7847 3.16222C16.3203 3.16222 2.1626 17.3199 2.1626 34.7843C2.1626 49.5296 12.255 61.9177 25.9088 65.4178L32.7649 72.2739C33.8584 73.3673 35.6312 73.3673 36.7247 72.2739L44.428 64.5706Z"/>
</mask>
<path fill-rule="evenodd" clip-rule="evenodd" d="M44.428 64.5706C56.6563 60.2007 65.4068 48.5144 65.4068 34.7843C65.4068 17.3199 51.2491 3.16222 33.7847 3.16222C16.3203 3.16222 2.1626 17.3199 2.1626 34.7843C2.1626 49.5296 12.255 61.9177 25.9088 65.4178L32.7649 72.2739C33.8584 73.3673 35.6312 73.3673 36.7247 72.2739L44.428 64.5706Z" fill="white"/>
<path d="M44.428 64.5706L43.4184 61.7456C43.0003 61.895 42.6206 62.1353 42.3066 62.4493L44.428 64.5706ZM25.9088 65.4178L28.0302 63.2965C27.65 62.9163 27.1746 62.6453 26.6538 62.5118L25.9088 65.4178ZM32.7649 72.2739L30.6436 74.3952L32.7649 72.2739ZM62.4068 34.7843C62.4068 47.2071 54.4908 57.7888 43.4184 61.7456L45.4375 67.3956C58.8218 62.6127 68.4068 49.8217 68.4068 34.7843H62.4068ZM33.7847 6.16222C49.5923 6.16222 62.4068 18.9768 62.4068 34.7843H68.4068C68.4068 15.6631 52.906 0.162216 33.7847 0.162216V6.16222ZM5.1626 34.7843C5.1626 18.9768 17.9771 6.16222 33.7847 6.16222V0.162216C14.6634 0.162216 -0.837402 15.6631 -0.837402 34.7843H5.1626ZM26.6538 62.5118C14.2946 59.3436 5.1626 48.1266 5.1626 34.7843H-0.837402C-0.837402 50.9326 10.2153 64.4919 25.1639 68.3238L26.6538 62.5118ZM34.8862 70.1525L28.0302 63.2965L23.7875 67.5391L30.6436 74.3952L34.8862 70.1525ZM34.6034 70.1525C34.6815 70.0744 34.8081 70.0744 34.8862 70.1525L30.6436 74.3952C32.9086 76.6602 36.581 76.6602 38.846 74.3952L34.6034 70.1525ZM42.3066 62.4493L34.6034 70.1525L38.846 74.3952L46.5493 66.6919L42.3066 62.4493Z" fill="#61892F" mask="url(#path-3-inside-1_6133_21315)"/>
<path fill-rule="evenodd" clip-rule="evenodd" d="M30.1134 26.4368C33.1594 25.7963 35.4463 23.094 35.4463 19.8575C35.4463 16.1445 32.4362 13.1344 28.7231 13.1344C25.0101 13.1344 22 16.1445 22 19.8575C22 23.1088 24.3078 25.821 27.3746 26.4454C27.373 26.4727 27.3722 26.5002 27.3722 26.5279V31.0473C27.3722 31.8051 27.9865 32.4194 28.7443 32.4194C29.5021 32.4194 30.1164 31.8051 30.1164 31.0473V26.5279C30.1164 26.4973 30.1154 26.4669 30.1134 26.4368Z" fill="#61892F"/>
<path fill-rule="evenodd" clip-rule="evenodd" d="M40.9793 26.7889C43.8467 26.1866 45.9996 23.6429 45.9996 20.5965C45.9996 17.1018 43.1666 14.2688 39.6719 14.2688C36.1772 14.2688 33.3442 17.1018 33.3442 20.5965C33.3442 23.6561 35.5157 26.2085 38.4016 26.7966C38.4001 26.8224 38.3993 26.8483 38.3993 26.8745V31.128C38.3993 31.8412 38.9775 32.4194 39.6907 32.4194C40.4039 32.4194 40.9821 31.8412 40.9821 31.128V26.8745C40.9821 26.8457 40.9812 26.8172 40.9793 26.7889Z" fill="#61892F"/>
<mask id="path-7-outside-2_6133_21315" maskUnits="userSpaceOnUse" x="25.5381" y="11" width="17" height="24" fill="black">
<rect fill="white" x="25.5381" y="11" width="17" height="24"/>
<path fill-rule="evenodd" clip-rule="evenodd" d="M35.6044 26.8677C39.0095 26.1525 41.5663 23.1319 41.5663 19.5141C41.5663 15.3642 38.2021 12 34.0522 12C29.9023 12 26.5381 15.3642 26.5381 19.5141C26.5381 23.1472 29.1166 26.1781 32.5434 26.8767C32.5415 26.9073 32.5406 26.9382 32.5406 26.9692V32.0203C32.5406 32.8673 33.2272 33.5539 34.0742 33.5539C34.9211 33.5539 35.6077 32.8673 35.6077 32.0203V26.9692C35.6077 26.9351 35.6066 26.9013 35.6044 26.8677Z"/>
</mask>
<path fill-rule="evenodd" clip-rule="evenodd" d="M35.6044 26.8677C39.0095 26.1525 41.5663 23.1319 41.5663 19.5141C41.5663 15.3642 38.2021 12 34.0522 12C29.9023 12 26.5381 15.3642 26.5381 19.5141C26.5381 23.1472 29.1166 26.1781 32.5434 26.8767C32.5415 26.9073 32.5406 26.9382 32.5406 26.9692V32.0203C32.5406 32.8673 33.2272 33.5539 34.0742 33.5539C34.9211 33.5539 35.6077 32.8673 35.6077 32.0203V26.9692C35.6077 26.9351 35.6066 26.9013 35.6044 26.8677Z" fill="#61892F"/>
<path d="M35.6044 26.8677L35.4605 26.1826L34.8663 26.3074L34.9059 26.9134L35.6044 26.8677ZM32.5434 26.8767L33.2421 26.9183L33.2782 26.3121L32.6832 26.1908L32.5434 26.8767ZM40.8663 19.5141C40.8663 22.794 38.5482 25.5341 35.4605 26.1826L35.7483 27.5527C39.4709 26.7709 42.2663 23.4697 42.2663 19.5141H40.8663ZM34.0522 12.7C37.8155 12.7 40.8663 15.7508 40.8663 19.5141H42.2663C42.2663 14.9776 38.5887 11.3 34.0522 11.3V12.7ZM27.2381 19.5141C27.2381 15.7508 30.2889 12.7 34.0522 12.7V11.3C29.5157 11.3 25.8381 14.9776 25.8381 19.5141H27.2381ZM32.6832 26.1908C29.5759 25.5574 27.2381 22.808 27.2381 19.5141H25.8381C25.8381 23.4865 28.6572 26.7989 32.4035 27.5626L32.6832 26.1908ZM33.2406 26.9692C33.2406 26.952 33.2411 26.935 33.2421 26.9183L31.8446 26.8351C31.8419 26.8795 31.8406 26.9243 31.8406 26.9692H33.2406ZM33.2406 32.0203V26.9692H31.8406V32.0203H33.2406ZM34.0742 32.8539C33.6138 32.8539 33.2406 32.4807 33.2406 32.0203H31.8406C31.8406 33.2539 32.8406 34.2539 34.0742 34.2539V32.8539ZM34.9077 32.0203C34.9077 32.4807 34.5345 32.8539 34.0742 32.8539V34.2539C35.3077 34.2539 36.3077 33.2539 36.3077 32.0203H34.9077ZM34.9077 26.9692V32.0203H36.3077V26.9692H34.9077ZM34.9059 26.9134C34.9071 26.9317 34.9077 26.9504 34.9077 26.9692H36.3077C36.3077 26.9199 36.3061 26.8708 36.3029 26.822L34.9059 26.9134Z" fill="white" mask="url(#path-7-outside-2_6133_21315)"/>
</svg>
