<svg width="30" height="46" viewBox="0 0 30 46" fill="none" xmlns="http://www.w3.org/2000/svg">
<path fill-rule="evenodd" clip-rule="evenodd" d="M18.3894 29.5722C24.4837 28.0027 29 22.2976 29 15.5C29 7.49187 22.732 1 15 1C7.26801 1 1 7.49187 1 15.5C1 22.0685 5.21702 27.617 11 29.3995V41.3056C11 43.3461 12.6542 45.0003 14.6947 45.0003C16.7352 45.0003 18.3894 43.3461 18.3894 41.3056V29.5722Z" fill="white"/>
<path d="M18.3894 29.5722L18.14 28.6038L17.3894 28.7971V29.5722H18.3894ZM11 29.3995H12V28.6614L11.2946 28.4439L11 29.3995ZM28 15.5C28 21.8523 23.7821 27.1508 18.14 28.6038L18.6388 30.5406C25.1854 28.8546 30 22.743 30 15.5H28ZM15 2C22.1469 2 28 8.01079 28 15.5H30C30 6.97295 23.3171 0 15 0V2ZM2 15.5C2 8.01079 7.85308 2 15 2V0C6.68294 0 0 6.97295 0 15.5H2ZM11.2946 28.4439C5.93828 26.7929 2 21.6375 2 15.5H0C0 22.4996 4.49577 28.4411 10.7054 30.3552L11.2946 28.4439ZM12 41.3056V29.3995H10V41.3056H12ZM14.6947 44.0003C13.2065 44.0003 12 42.7938 12 41.3056H10C10 43.8984 12.1019 46.0003 14.6947 46.0003V44.0003ZM17.3894 41.3056C17.3894 42.7938 16.1829 44.0003 14.6947 44.0003V46.0003C17.2875 46.0003 19.3894 43.8984 19.3894 41.3056H17.3894ZM17.3894 29.5722V41.3056H19.3894V29.5722H17.3894Z" fill="#86C232"/>
</svg>
