<svg width="68" height="77" viewBox="0 0 68 77" fill="none" xmlns="http://www.w3.org/2000/svg">
<path fill-rule="evenodd" clip-rule="evenodd" d="M43.9482 67.4146C57.8722 63.1605 68 50.2095 68 34.8931C68 16.1154 52.7777 0.893066 34 0.893066C15.2223 0.893066 0 16.1154 0 34.8931C0 50.2434 10.1727 63.2179 24.1443 67.4427L32.0523 75.3506C33.1458 76.4441 34.9186 76.4441 36.0121 75.3506L43.9482 67.4146Z" fill="white"/>
<mask id="path-2-inside-1_6133_26944" fill="white">
<path fill-rule="evenodd" clip-rule="evenodd" d="M42.9368 65.0614C55.9384 61.1364 65.4063 49.0659 65.4063 34.7841C65.4063 17.3197 51.2486 3.16199 33.7842 3.16199C16.3198 3.16199 2.16211 17.3197 2.16211 34.7841C2.16211 49.0244 11.575 61.0662 24.5183 65.0269L31.7649 72.2735C32.8583 73.367 34.6312 73.367 35.7247 72.2735L42.9368 65.0614Z"/>
</mask>
<path fill-rule="evenodd" clip-rule="evenodd" d="M42.9368 65.0614C55.9384 61.1364 65.4063 49.0659 65.4063 34.7841C65.4063 17.3197 51.2486 3.16199 33.7842 3.16199C16.3198 3.16199 2.16211 17.3197 2.16211 34.7841C2.16211 49.0244 11.575 61.0662 24.5183 65.0269L31.7649 72.2735C32.8583 73.367 34.6312 73.367 35.7247 72.2735L42.9368 65.0614Z" fill="#86C232"/>
<path d="M42.9368 65.0614L42.0698 62.1894C41.5962 62.3324 41.1653 62.5903 40.8155 62.9401L42.9368 65.0614ZM24.5183 65.0269L26.6396 62.9056C26.2925 62.5585 25.8655 62.3019 25.3961 62.1583L24.5183 65.0269ZM31.7649 72.2735L29.6435 74.3949H29.6435L31.7649 72.2735ZM62.4063 34.7841C62.4063 47.7065 53.8402 58.6361 42.0698 62.1894L43.8038 67.9334C58.0366 63.6367 68.4063 50.4253 68.4063 34.7841H62.4063ZM33.7842 6.16199C49.5918 6.16199 62.4063 18.9765 62.4063 34.7841H68.4063C68.4063 15.6628 52.9055 0.161987 33.7842 0.161987V6.16199ZM5.16211 34.7841C5.16211 18.9765 17.9767 6.16199 33.7842 6.16199V0.161987C14.663 0.161987 -0.837891 15.6628 -0.837891 34.7841H5.16211ZM25.3961 62.1583C13.6784 58.5725 5.16211 47.6689 5.16211 34.7841H-0.837891C-0.837891 50.3799 9.47167 63.5599 23.6404 67.8956L25.3961 62.1583ZM33.8862 70.1522L26.6396 62.9056L22.397 67.1483L29.6435 74.3949L33.8862 70.1522ZM33.6033 70.1522C33.6814 70.0741 33.8081 70.0741 33.8862 70.1522L29.6435 74.3949C31.9086 76.6599 35.5809 76.6599 37.846 74.3949L33.6033 70.1522ZM40.8155 62.9401L33.6033 70.1522L37.846 74.3949L45.0581 67.1827L40.8155 62.9401Z" fill="#86C232" mask="url(#path-2-inside-1_6133_26944)"/>
<path fill-rule="evenodd" clip-rule="evenodd" d="M36.1298 44.7989C41.8065 43.6034 46.068 38.5664 46.068 32.534C46.068 25.6117 40.4563 20 33.534 20C26.6117 20 21 25.6117 21 32.534C21 38.5931 25.2993 43.648 31.0137 44.8145V51.4421C31.0137 52.8548 32.1589 54.0001 33.5717 54.0001C34.9845 54.0001 36.1298 52.8548 36.1298 51.4421V44.7989Z" fill="white"/>
</svg>
